# xmcd
# 
# Track frame offsets:
#     150
#     16927
#     29408
#     48835
#     75861
#     88411
#     117065
#     137603
#     151494
#     165245
#     183170
#     194073
# 
# Disc length: 2743
# 
# Revision: 9
# Processed by: cddbd v1.5.2PL0 Copyright (c) Steve Scherf et al.
# Submitted via: fre:ac v1.0.31
# 
DISCID=8a0ab50c
DTITLE=Maria Muldaur - Sweet Lovin' Ol' Soul
DYEAR=2005
DGENRE=Blues
TTITLE0=I Am Sailin'
TTITLE1=Long As I Can See You Smile
TTITLE2=Sweet Lovin' Ol' Soul
TTITLE3=Ain't What You Used To Have
TTITLE4=Lookin' The World Over
TTITLE5=Empty Bed Blues
TTITLE6=Tricks Ain't Walkin'
TTITLE7=Crazy Cryin' Blues
TTITLE8=She Put Me Outdoors
TTITLE9=Decent Woman Blues
TTITLE10=I'm Goin' Back
TTITLE11=Take A Stand
EXTD=
EXTT0=
EXTT1=
EXTT2=
EXTT3=
EXTT4=
EXTT5=
EXTT6=
EXTT7=
EXTT8=
EXTT9=
EXTT10=
EXTT11=
PLAYORDER=
